<svg xmlns="http://www.w3.org/2000/svg" xmlns:xlink="http://www.w3.org/1999/xlink" width="224.067" height="194.167" viewBox="0 0 224.067 194.167">
  <defs>
    <linearGradient id="linear-gradient" x1="0.5" x2="0.5" y2="1" gradientUnits="objectBoundingBox">
      <stop offset="0" stop-color="#39ffe4"/>
      <stop offset="1" stop-color="#4350d8"/>
      <stop offset="1" stop-color="#434dd8"/>
    </linearGradient>
  </defs>
  <path id="Union_2" data-name="Union 2" d="M-496.726,678.78l-66.483-83.393-116.844,82.02-.007.02H-701.2l68.5-187.379s26.066-.022,27.57,0c0,0,75.236-23.366,89.156,26.823,11.547,37.532-20.939,60.957-31.231,67.288l-2.823,1.982,72.9,92.642Zm-178.506-14.489,95.837-60.036-39.4-93.506Zm125.009-78.4.045.057,1.064-.667C-549.826,585.691-550.223,585.9-550.223,585.9Zm-48.334-79.611c7.545,19.079,19.927,50.634,27.677,70.4,13.891-5.544,47.952-22.632,36.89-53.572-6.413-17.935-21.069-22.732-34.909-22.733C-582.258,500.382-594.856,504.85-598.558,506.285Z" transform="translate(701.203 -484.614)" fill="url(#linear-gradient)"/>
</svg>
